<?xml version="1.0" standalone="no"?>
<!DOCTYPE svg PUBLIC "-//W3C//DTD SVG 20010904//EN"
 "http://www.w3.org/TR/2001/REC-SVG-20010904/DTD/svg10.dtd">
<svg version="1.0" xmlns="http://www.w3.org/2000/svg"
 width="316.000000pt" height="316.000000pt" viewBox="0 0 316.000000 316.000000"
 preserveAspectRatio="xMidYMid meet">
<metadata>
Created by potrace 1.14, written by Peter Selinger 2001-2017
</metadata>
<g transform="translate(0.000000,316.000000) scale(0.100000,-0.100000)"
fill="#000000" stroke="none">
<path d="M1558 2795 c-2 -1 -41 -5 -88 -9 -47 -3 -110 -13 -140 -22 -30 -8
-59 -16 -65 -18 -115 -29 -253 -95 -364 -174 -92 -65 -233 -208 -304 -309 -39
-56 -121 -213 -111 -213 3 0 -1 -11 -10 -25 -9 -14 -14 -25 -10 -25 4 0 2 -6
-4 -13 -6 -7 -13 -24 -15 -37 -3 -14 -10 -38 -16 -54 -37 -93 -49 -348 -26
-509 86 -575 611 -1024 1195 -1020 48 1 180 12 210 18 14 2 39 7 55 11 43 8
150 41 172 52 10 5 47 22 83 38 153 68 320 205 454 372 60 76 71 93 67 115 0
4 3 7 9 7 5 0 10 7 10 15 0 8 4 15 8 15 17 0 96 197 118 295 31 141 39 336 18
465 -16 101 -52 217 -100 318 -19 41 -34 78 -34 83 0 5 -4 9 -8 9 -5 0 -14 10
-20 23 -74 142 -245 318 -399 410 -115 70 -270 133 -368 152 -105 19 -307 38
-317 30z m162 -40 c41 -3 91 -10 110 -15 19 -4 42 -8 50 -8 53 0 266 -92 355
-154 22 -16 63 -44 91 -63 100 -68 230 -222 309 -364 53 -95 117 -267 128
-341 3 -19 9 -57 13 -85 12 -86 6 -283 -12 -362 -25 -112 -89 -296 -111 -318
-8 -8 -12 -15 -9 -15 7 0 -37 -71 -91 -146 -47 -67 -125 -150 -196 -209 -27
-22 -55 -46 -63 -53 -8 -7 -14 -10 -14 -5 0 4 -4 3 -8 -2 -8 -12 -109 -73
-171 -105 -55 -27 -174 -67 -266 -87 -93 -20 -321 -24 -429 -7 -82 13 -267 73
-336 109 -132 68 -326 229 -395 328 -11 16 -30 40 -42 54 -12 14 -27 38 -35
52 -7 14 -15 28 -18 31 -10 9 -80 154 -84 175 -3 11 -14 46 -25 78 -63 180
-62 503 3 685 8 23 16 46 16 50 1 4 10 27 21 51 10 24 19 47 19 52 0 5 5 9 10
9 6 0 10 6 10 14 0 25 60 129 100 173 22 23 40 46 40 50 0 12 110 124 154 158
87 67 141 105 151 105 5 0 30 14 55 31 45 30 80 48 90 45 3 0 17 6 30 15 25
15 147 53 205 64 17 3 68 8 115 11 47 4 86 7 87 8 3 2 62 -1 143 -9z"/>
<path d="M1784 2685 c-9 -22 0 -28 48 -34 43 -6 61 -26 33 -37 -9 -4 -51 -26
-93 -50 -84 -48 -102 -53 -102 -26 -1 23 -22 56 -39 60 -7 2 -25 -7 -38 -20
l-24 -23 -19 24 c-17 24 -19 24 -44 8 -14 -9 -35 -17 -47 -17 -16 0 -20 -5
-16 -20 3 -11 1 -22 -4 -25 -12 -8 1 -35 17 -35 8 0 14 4 14 10 0 5 12 22 28
37 l27 27 5 -39 c3 -21 11 -40 18 -43 6 -2 12 1 12 6 0 13 49 72 60 72 5 0 14
-16 20 -36 7 -19 17 -33 23 -31 7 2 18 -2 25 -10 7 -7 25 -13 40 -13 49 0 246
-55 265 -73 10 -10 30 -17 45 -16 34 2 64 -10 56 -23 -4 -6 -1 -9 7 -6 15 5
20 47 8 63 -4 6 -7 15 -7 20 -1 18 -62 29 -92 18 -16 -6 -32 -7 -37 -2 -5 5
-51 20 -102 33 -51 13 -95 27 -98 29 -2 3 17 18 44 33 125 71 137 81 127 107
-5 13 -32 22 -132 43 -14 3 -25 -1 -28 -11z"/>
<path d="M1045 2529 c8 -40 68 -160 79 -156 6 2 17 17 25 33 7 16 20 40 28 52
14 23 15 23 34 6 10 -9 19 -22 19 -29 0 -7 8 -20 19 -29 15 -14 19 -14 24 -3
8 22 -41 96 -69 103 -27 7 -59 -15 -69 -47 -10 -30 -18 -23 -44 36 -23 54 -54
77 -46 34z"/>
<path d="M1300 2512 c-33 -33 -39 -66 -14 -76 26 -10 34 -7 64 26 24 26 32 29
44 19 11 -9 16 -9 21 0 10 15 -23 46 -57 54 -22 6 -33 1 -58 -23z"/>
<path d="M2220 2441 c-25 -25 -55 -65 -68 -88 l-22 -41 36 -22 c45 -28 122
-39 135 -19 17 27 9 50 -31 93 -23 25 -36 47 -31 50 6 4 19 19 30 35 35 49 1
43 -49 -8z m40 -122 c14 -25 13 -28 -7 -24 -10 2 -23 4 -29 4 -5 1 -18 7 -28
14 -15 11 -17 17 -7 35 11 21 13 21 37 6 14 -9 29 -25 34 -35z"/>
<path d="M1547 2424 c-1 -2 -21 -4 -42 -5 -22 -1 -52 -8 -67 -16 -15 -7 -40
-11 -54 -9 -15 3 -32 -1 -41 -9 -8 -8 -23 -15 -34 -15 -11 0 -34 -8 -52 -17
-18 -9 -34 -18 -37 -18 -15 -4 -46 -19 -50 -25 -3 -3 -30 -23 -60 -43 -153
-101 -291 -302 -326 -476 -3 -13 -11 -49 -18 -80 -13 -58 -14 -183 -2 -261 16
-107 85 -274 151 -369 25 -36 184 -187 210 -201 17 -8 32 -17 35 -21 5 -5 76
-39 145 -69 137 -59 345 -69 510 -26 306 82 513 286 600 591 43 151 41 348 -7
490 -25 78 -72 171 -108 216 -22 27 -26 39 -17 48 16 16 25 14 55 -14 30 -28
82 -55 106 -55 16 0 50 53 40 63 -3 3 -7 12 -8 21 -7 52 -97 117 -133 98 -17
-10 -17 -11 -1 -17 25 -10 15 -21 -42 -50 l-48 -24 -53 53 c-124 121 -311 214
-469 232 -64 7 -179 12 -183 8z m-74 -126 c10 -2 33 -18 50 -36 18 -17 43 -41
56 -53 18 -17 20 -23 10 -30 -19 -12 0 -60 29 -70 17 -7 28 -3 44 13 22 22 29
24 78 30 22 3 25 0 23 -27 -4 -47 -25 -77 -68 -96 -21 -10 -43 -16 -47 -13 -4
3 -13 -17 -21 -43 -8 -26 -18 -48 -23 -48 -5 0 -15 22 -23 48 -9 28 -20 46
-26 43 -32 -12 -101 46 -105 90 -5 45 -1 53 27 48 15 -3 30 -7 34 -10 11 -7
39 25 39 46 0 28 -59 80 -91 80 -15 0 -30 4 -33 9 -6 9 -72 -10 -106 -31 -55
-35 -77 -162 -35 -208 10 -11 15 -20 12 -20 -4 0 0 -8 8 -17 9 -10 54 -70 100
-133 126 -172 147 -198 172 -211 32 -17 60 0 109 64 21 29 41 54 45 57 3 3 41
52 84 110 44 58 82 107 85 110 4 3 9 13 13 23 4 10 11 16 16 13 5 -4 12 0 14
6 3 7 6 3 6 -9 2 -52 63 -86 150 -84 30 0 33 -1 20 -14 -8 -7 -20 -15 -28 -17
-8 -2 -22 -8 -30 -15 -9 -7 -72 -54 -141 -105 -69 -51 -132 -100 -141 -108 -9
-8 -37 -32 -62 -53 -51 -42 -62 -78 -28 -97 11 -5 25 -16 33 -22 28 -27 157
-128 163 -128 4 0 12 -6 19 -12 7 -7 25 -22 40 -33 16 -11 33 -24 40 -30 6 -5
28 -25 49 -42 l37 -33 -27 -6 c-64 -16 -88 -48 -84 -111 1 -18 -1 -33 -3 -33
-3 0 -20 21 -38 47 -17 26 -39 56 -48 66 -37 45 -50 61 -132 169 -47 62 -86
117 -86 123 -1 16 -36 23 -57 11 -39 -21 -58 -42 -133 -141 -42 -55 -80 -104
-84 -110 -4 -5 -19 -23 -32 -39 -60 -68 -89 -126 -91 -182 -1 -30 1 -54 5 -54
4 0 10 -11 14 -23 3 -13 16 -29 28 -35 13 -6 18 -11 11 -11 -23 -2 -72 50 -78
82 -12 70 -11 84 3 135 13 44 13 57 2 77 -7 14 -20 25 -29 25 -9 1 -26 6 -39
13 -22 13 -22 13 24 52 25 22 51 45 58 50 6 6 34 26 61 45 44 30 123 91 193
150 36 30 29 64 -25 107 -25 21 -54 46 -65 56 -10 9 -21 17 -26 17 -4 0 -19
11 -34 25 -15 14 -31 25 -37 25 -5 0 -11 3 -13 8 -5 12 -89 77 -157 120 -43
28 -59 43 -49 47 8 3 19 5 24 4 34 -6 57 5 83 41 28 38 29 45 24 109 -5 65 -4
71 28 120 19 28 39 51 45 51 6 0 17 6 24 14 17 21 84 28 143 14z m307 -13 c-7
-8 -20 -15 -29 -15 -9 0 -22 -5 -29 -12 -7 -7 -12 -9 -12 -4 0 4 -11 -5 -25
-20 -13 -14 -22 -30 -20 -34 4 -7 -17 -20 -31 -20 -17 0 3 39 39 76 35 37 48
44 81 44 33 0 37 -2 26 -15z m648 -140 c24 -37 29 -65 11 -65 -15 0 -49 19
-72 41 -18 17 -18 19 -3 34 9 9 14 20 11 25 -3 4 3 6 12 4 10 -3 28 -20 41
-39z m-1458 -233 c0 -4 -11 -19 -24 -34 -14 -14 -22 -29 -19 -32 4 -3 2 -6 -3
-6 -6 0 -11 -17 -12 -37 -2 -21 -5 -39 -7 -42 -3 -2 0 -10 6 -18 6 -7 9 -13 5
-13 -13 0 24 -59 46 -74 30 -21 44 -20 68 4 16 16 18 25 10 46 -13 34 -6 44
28 38 52 -10 91 -49 99 -99 4 -24 30 -45 48 -39 17 7 49 -26 37 -38 -5 -5 -20
-10 -33 -11 -20 -1 -62 -27 -44 -27 3 0 -1 -12 -9 -27 -41 -81 -140 -111 -129
-40 8 54 6 70 -8 62 -6 -4 -6 0 1 12 10 15 9 26 -4 51 -16 30 -36 43 -36 23 0
-6 -17 6 -37 24 -21 19 -41 35 -45 35 -5 0 -8 6 -8 14 0 7 -6 18 -12 24 -7 6
-12 28 -12 49 1 21 2 49 3 64 2 38 91 128 91 91z m1350 -150 c0 -99 -29 -137
-114 -148 -35 -5 -37 -6 -39 -33 -1 -11 -4 -21 -7 -21 -4 0 -7 -7 -7 -15 0
-11 6 -13 21 -9 19 6 19 6 3 -10 -12 -13 -15 -27 -11 -54 3 -20 8 -40 11 -44
7 -12 -53 -9 -81 3 -24 11 -45 45 -60 96 -5 15 -20 26 -46 33 -28 8 -38 15
-34 25 4 8 16 15 28 15 29 0 51 16 51 37 1 34 38 81 77 96 21 9 38 11 38 6 0
-6 4 -7 10 -4 6 4 9 -10 8 -34 -2 -71 41 -89 90 -35 26 27 56 110 44 118 -4 2
-9 19 -10 37 -2 28 0 30 13 19 11 -9 15 -31 15 -78z m-1318 -206 c10 -15 -1
-32 -24 -33 -12 -1 -25 -8 -29 -15 -9 -15 -29 -43 -46 -66 -11 -15 -12 -13
-11 11 1 15 7 27 12 27 5 0 7 3 3 6 -7 7 44 60 55 57 4 -2 8 4 8 12 0 16 20
16 32 1z m1276 -43 c15 -16 33 -38 40 -50 24 -45 7 -170 -22 -160 -6 3 -9 11
-7 18 2 8 3 37 4 64 1 60 -25 110 -65 128 -35 15 -36 27 -3 27 14 0 37 -12 53
-27z m-662 -290 c20 -61 28 -73 59 -83 43 -14 75 -50 80 -88 2 -18 0 -32 -3
-33 -52 -5 -122 -3 -122 4 0 4 -9 3 -21 -3 -11 -7 -18 -14 -15 -17 5 -6 -4
-18 -50 -69 -17 -19 -36 -34 -43 -34 -7 0 -10 -4 -7 -9 8 -12 -39 -31 -77 -31
-18 0 -45 9 -62 21 -28 19 -28 20 -5 13 36 -10 110 -12 110 -2 0 4 6 8 14 8 7
0 25 11 40 25 49 45 25 100 -42 93 -25 -3 -27 -1 -26 35 2 37 34 84 48 70 3
-4 6 -2 6 3 0 6 15 15 33 22 27 10 36 21 46 52 12 42 28 52 37 23z m229 -343
c-21 -24 -72 -26 -101 -6 -18 14 -17 14 16 12 29 -2 51 1 99 13 2 1 -4 -8 -14
-19z"/>
<path d="M1003 2388 c-28 -49 -34 -67 -27 -94 10 -37 49 -32 90 13 19 20 34
40 34 44 0 19 -24 19 -44 0 -29 -27 -51 -28 -36 -2 5 11 14 31 20 45 14 39
-13 34 -37 -6z"/>
<path d="M853 2278 c-32 -35 -35 -59 -13 -93 11 -16 20 -26 20 -20 0 5 5 4 11
-2 8 -8 20 -8 40 -1 43 15 69 109 35 130 -24 16 -73 8 -93 -14z m77 -22 c0
-18 -30 -56 -44 -56 -25 0 -28 32 -5 56 21 22 49 23 49 0z"/>
<path d="M670 2223 c0 -9 9 -50 21 -90 11 -41 19 -78 17 -84 -2 -5 -20 2 -40
16 -40 27 -68 32 -68 12 0 -16 168 -129 181 -121 16 10 9 36 -11 41 -11 3 -20
9 -20 12 0 4 23 30 50 58 74 75 61 117 -13 44 -27 -25 -36 -29 -45 -19 -5 7
-11 16 -11 21 -5 44 -21 99 -34 115 -14 17 -27 15 -27 -5z"/>
<path d="M2276 2204 c-7 -18 0 -34 15 -34 12 0 12 37 0 44 -5 3 -12 -1 -15
-10z"/>
<path d="M2543 2045 c-35 -12 -63 -20 -63 -17 0 3 -5 1 -12 -6 -7 -7 -19 -12
-28 -12 -21 0 -40 -19 -34 -35 4 -9 26 -5 87 17 132 48 137 50 137 64 0 18
-12 17 -87 -11z"/>
<path d="M2570 1586 c-11 -31 -4 -36 50 -35 36 1 50 6 50 16 0 43 -85 59 -100
19z"/>
<path d="M541 1572 c-1 -32 26 -39 53 -13 23 22 46 15 31 -9 -3 -5 0 -7 9 -4
12 5 13 9 3 25 -14 23 -43 25 -51 4 -8 -21 -34 -19 -39 3 -4 12 -5 11 -6 -6z"/>
<path d="M2606 1511 c-51 -18 -51 -20 11 -54 41 -22 50 -22 28 3 -24 27 -13
54 20 46 15 -4 25 -2 25 4 0 6 -4 8 -10 5 -5 -3 -10 -1 -10 4 0 14 -4 13 -64
-8z"/>
<path d="M593 1503 c-63 -5 -71 -23 -10 -23 24 0 48 -5 55 -12 9 -9 12 -6 10
15 -1 15 -3 26 -3 25 0 -1 -24 -3 -52 -5z"/>
<path d="M570 1430 c-15 -15 -19 -28 -15 -43 20 -64 105 -58 105 8 0 49 -55
70 -90 35z m69 -14 c18 -22 -7 -56 -41 -56 -23 0 -28 5 -28 23 0 42 44 63 69
33z"/>
<path d="M2551 1403 c0 -22 2 -24 8 -10 6 17 9 16 44 -7 39 -26 48 -23 53 21
1 13 -2 21 -7 17 -5 -3 -9 -12 -9 -20 0 -18 -3 -18 -42 6 -43 26 -48 25 -47
-7z"/>
<path d="M622 1322 c-46 -30 -53 -42 -22 -42 23 0 27 -18 5 -26 -28 -11 -4
-24 41 -22 51 2 72 18 23 18 l-31 0 23 18 22 19 -29 7 -29 8 25 18 c40 30 18
31 -28 2z"/>
<path d="M2535 1320 c-3 -5 -5 -10 -3 -11 62 -15 98 -19 98 -9 0 5 -9 10 -20
10 -29 0 -33 1 -52 11 -10 6 -19 5 -23 -1z"/>
<path d="M2516 1283 c-4 -9 0 -23 7 -31 12 -11 19 -12 37 -2 12 6 30 10 40 7
13 -3 17 0 13 10 -4 10 -14 13 -32 9 -50 -12 -56 -11 -53 7 4 22 -4 22 -12 0z"/>
<path d="M2506 1241 c-4 -5 3 -15 14 -21 26 -14 26 -32 -1 -28 -15 2 -23 -3
-25 -15 -1 -9 2 -15 6 -12 5 3 12 0 16 -6 5 -8 -3 -10 -25 -7 -17 2 -31 1 -31
-4 0 -4 6 -8 13 -9 6 0 19 -2 27 -4 76 -16 82 -15 53 17 -15 17 -15 18 10 18
32 0 33 5 10 28 -42 40 -61 53 -67 43z"/>
<path d="M610 1189 c0 -5 4 -8 9 -5 4 3 16 -1 27 -8 15 -12 16 -18 7 -39 -10
-22 -10 -24 8 -20 10 3 19 12 19 19 0 8 9 22 19 31 11 9 18 20 15 25 -8 12
-104 10 -104 -3z"/>
<path d="M718 1129 c-10 -5 -18 -8 -18 -4 0 3 -8 -3 -18 -12 -19 -18 -19 -39
-1 -28 5 4 9 -6 9 -22 1 -26 1 -27 13 -8 7 11 19 21 27 23 29 7 40 23 29 43
-11 22 -17 23 -41 8z"/>
<path d="M2430 1093 c0 -5 16 -18 36 -31 19 -13 34 -28 31 -35 -6 -21 -42 -19
-67 3 l-25 21 -22 -28 c-25 -31 -31 -52 -9 -34 17 14 70 -24 62 -45 -3 -8 -1
-14 4 -14 19 0 10 49 -12 66 -20 14 -20 15 -3 9 46 -17 53 -16 78 11 24 25 25
29 9 40 -9 8 -22 14 -28 14 -6 0 -17 7 -24 15 -13 16 -30 20 -30 8z"/>
<path d="M784 1054 c7 -23 -13 -34 -62 -34 -23 0 -23 0 -5 -30 19 -33 40 -42
23 -11 -12 23 -7 26 43 30 45 3 48 -11 12 -59 -14 -18 -23 -35 -21 -37 6 -6
36 9 36 18 0 5 14 9 30 9 29 0 30 -1 19 -22 -7 -13 -12 -24 -11 -25 1 -2 2
-10 2 -19 0 -11 -6 -14 -22 -9 -22 6 -23 6 -3 -10 27 -21 39 -14 43 24 3 30 6
33 30 28 l27 -5 -25 20 c-14 11 -24 25 -22 30 1 5 -2 7 -7 4 -5 -4 -12 -2 -16
4 -4 6 -11 7 -17 4 -7 -4 -8 -2 -4 4 9 14 -16 73 -39 92 -16 14 -17 13 -11 -6z"/>
<path d="M2316 938 c-9 -12 -16 -28 -16 -34 0 -17 33 -50 50 -48 8 0 22 2 32
2 9 1 21 16 27 33 9 27 8 33 -12 50 -30 25 -63 24 -81 -3z m70 -17 c17 -22 5
-51 -22 -51 -29 0 -45 27 -33 57 9 25 35 22 55 -6z"/>
<path d="M2277 894 c-3 -4 -2 -15 4 -26 6 -11 8 -22 5 -25 -8 -8 -27 8 -21 18
3 5 -1 6 -9 3 -11 -4 -13 -11 -5 -31 13 -35 12 -37 -16 -19 -27 18 -35 20 -35
9 0 -10 66 -53 80 -53 5 0 10 9 10 21 0 14 5 19 15 16 23 -10 25 6 5 51 -20
43 -22 46 -33 36z"/>
<path d="M927 871 c4 -15 -3 -22 -31 -31 -20 -6 -36 -15 -36 -20 0 -11 41 -40
55 -40 5 0 2 5 -8 11 -22 13 -13 27 29 45 31 13 33 16 22 34 -16 25 -38 26
-31 1z"/>
<path d="M952 805 l-31 -44 21 -15 c12 -9 24 -13 27 -9 3 3 0 8 -6 10 -22 8
-15 36 6 30 13 -3 18 -1 14 9 -8 21 6 37 22 24 7 -6 15 -7 18 -3 3 4 -5 16
-18 25 -22 16 -23 16 -53 -27z"/>
<path d="M2162 800 c-24 -23 -30 -39 -8 -21 17 14 31 -2 22 -24 -3 -8 -1 -15
4 -15 6 0 10 -12 10 -26 0 -15 4 -23 11 -19 6 4 7 14 4 24 -4 9 -9 34 -11 56
-3 22 -6 41 -8 42 -1 2 -12 -6 -24 -17z"/>
<path d="M1008 757 c-29 -45 -29 -60 0 -34 22 20 32 13 32 -19 0 -31 35 -50
57 -32 14 11 16 10 11 -10 -4 -15 -1 -25 12 -32 25 -14 30 -13 24 5 -4 8 1 17
10 21 11 4 13 11 6 24 -11 20 -4 31 16 23 8 -3 14 -1 14 5 0 11 -39 24 -52 16
-4 -3 -8 -12 -8 -20 0 -8 -4 -14 -10 -14 -14 0 -13 7 5 34 15 22 14 24 -7 30
-16 4 -27 0 -37 -14 -13 -20 -32 -27 -30 -12 4 23 -2 72 -8 72 -5 -1 -20 -20
-35 -43z"/>
<path d="M2083 748 c-31 -15 -32 -72 -2 -88 31 -17 66 -4 77 28 8 24 6 31 -15
50 -28 25 -29 25 -60 10z m58 -35 c7 -18 5 -28 -5 -39 -19 -18 -30 -18 -47 2
-19 24 -20 46 -1 60 21 16 41 7 53 -23z"/>
<path d="M2225 730 c-3 -5 -2 -10 4 -10 5 0 13 5 16 10 3 6 2 10 -4 10 -5 0
-13 -4 -16 -10z"/>
<path d="M1976 692 c-7 -11 19 -78 34 -87 6 -4 7 1 3 11 -5 15 -2 16 28 11 33
-6 33 -6 9 7 -15 9 -25 23 -25 38 0 16 -7 24 -22 26 -11 2 -24 -1 -27 -6z m34
-23 c0 -11 -4 -17 -10 -14 -5 3 -10 13 -10 21 0 8 5 14 10 14 6 0 10 -9 10
-21z"/>
<path d="M1230 680 c0 -15 -3 -23 -16 -49 -7 -14 -10 -29 -6 -35 4 -7 8 -4 10
7 4 17 50 43 60 33 2 -3 -1 -19 -7 -37 -11 -31 -10 -31 7 -16 18 16 19 16 31
-9 6 -15 14 -24 18 -21 3 4 0 14 -7 22 -10 12 -10 19 -2 27 7 7 12 19 12 28
-1 12 -2 12 -11 -2 -15 -26 -27 -22 -22 6 4 17 10 23 22 20 11 -4 10 -2 -3 7
-15 9 -21 9 -24 1 -5 -17 -22 -15 -22 2 0 8 -7 17 -16 20 -21 8 -24 8 -24 -4z
m30 -19 c0 -6 -4 -13 -10 -16 -5 -3 -10 1 -10 9 0 9 5 16 10 16 6 0 10 -4 10
-9z"/>
<path d="M1910 658 c0 -19 30 -92 35 -86 5 5 -18 84 -28 94 -4 4 -7 0 -7 -8z"/>
<path d="M1850 625 c5 -14 7 -25 4 -25 -4 0 0 -7 7 -17 8 -9 13 -18 11 -20 -2
-3 -1 -7 2 -10 5 -6 3 12 -10 70 -3 15 -10 27 -15 27 -5 0 -4 -11 1 -25z"/>
<path d="M1786 631 c-4 -5 2 -7 13 -4 14 4 20 -2 25 -27 9 -46 8 -48 -11 -53
-16 -4 -16 -5 -1 -6 24 -2 29 12 22 58 -5 31 -11 41 -25 41 -10 0 -20 -4 -23
-9z"/>
<path d="M1441 613 c11 -19 11 -27 1 -43 -17 -27 -15 -39 3 -16 20 26 19 50
-2 67 -15 13 -15 12 -2 -8z"/>
<path d="M1718 610 c-7 -11 -19 -20 -26 -20 -7 0 -11 4 -8 9 3 5 0 11 -8 14
-10 4 -12 0 -9 -14 3 -10 9 -19 13 -19 18 0 2 -36 -21 -47 -13 -7 -18 -13 -10
-13 8 0 23 7 32 16 17 15 21 15 41 2 16 -10 30 -13 46 -7 30 11 28 16 -6 11
-17 -2 -33 2 -40 11 -18 21 1 64 30 70 l23 4 -22 2 c-13 0 -28 -8 -35 -19z"/>
<path d="M1479 619 c-5 -27 -4 -69 3 -69 4 0 8 10 8 22 0 19 1 20 18 5 13 -12
22 -13 36 -5 17 9 18 7 14 -21 -2 -17 -1 -31 3 -31 7 0 17 88 10 95 -2 2 -12
-6 -21 -18 l-18 -22 -26 24 c-14 14 -26 23 -27 20z"/>
<path d="M1607 602 c-20 -22 -22 -53 -5 -70 20 -20 30 -14 15 9 -19 26 -11 58
17 69 15 6 16 9 5 9 -9 1 -23 -7 -32 -17z"/>
<path d="M1360 586 c0 -25 12 -39 45 -49 14 -5 12 -1 -8 14 -19 15 -26 27 -22
40 4 11 2 19 -4 19 -6 0 -11 -11 -11 -24z"/>
<path d="M1470 529 c0 -5 5 -7 10 -4 6 3 10 8 10 11 0 2 -4 4 -10 4 -5 0 -10
-5 -10 -11z"/>
</g>
</svg>
